<?xml version="1.0" encoding="UTF-8"?>
<svg width="100px" height="100px" viewBox="0 0 100 100" version="1.1" xmlns="http://www.w3.org/2000/svg" xmlns:xlink="http://www.w3.org/1999/xlink">
    <title>Artboard</title>
    <g id="Artboard" stroke="none" stroke-width="1" fill="none" fill-rule="evenodd">
        <g id="Group" transform="translate(7, 22)">
            <ellipse id="Oval" fill="#000000" cx="14.5" cy="8.91428571" rx="8.97619048" ry="8.91428571"></ellipse>
            <rect id="Rectangle" fill="#000000" x="4.14285714" y="17.1428571" width="20.7142857" height="27.4285714"></rect>
            <polyline id="Path-22" stroke="#000000" stroke-width="4.14285714" points="14.5 19.8857143 -2.23543637e-13 19.8857143 1.46493928e-13 48"></polyline>
            <polyline id="Path-22" stroke="#000000" stroke-width="4.14285714" transform="translate(21.75, 33.9429) scale(-1, 1) translate(-21.75, -33.9429)" points="29 19.8857143 14.5 19.8857143 14.5 48"></polyline>
        </g>
        <path id="Line-4" d="M71.5,3.5 L85.5,10.5 L71.5,17.5 L71.5,11.5 L13.5,11.5 L13.5,9.5 L71.5,9.5 L71.5,3.5 Z" fill="#000000" fill-rule="nonzero"></path>
        <path id="Line-4" d="M71.5,82.5 L85.5,89.5 L71.5,96.5 L71.5,90.5 L13.5,90.5 L13.5,88.5 L71.5,88.5 L71.5,82.5 Z" transform="translate(50, 89.5) scale(-1, 1) translate(-50, -89.5)" fill="#000000" fill-rule="nonzero"></path>
        <rect id="Rectangle" stroke="#000000" x="46.5" y="33.5" width="45" height="34"></rect>
        <rect id="Rectangle" stroke="#000000" fill="#FFFFFF" x="50.5" y="33.5" width="36" height="34"></rect>
        <rect id="Rectangle" fill="#000000" x="62" y="68" width="13" height="4"></rect>
        <rect id="Rectangle" fill="#000000" x="56" y="71" width="25" height="6"></rect>
    </g>
</svg>