<?xml version="1.0" encoding="UTF-8"?>
<svg width="50px" height="50px" viewBox="0 0 50 50" version="1.1" xmlns="http://www.w3.org/2000/svg" xmlns:xlink="http://www.w3.org/1999/xlink">
    <g stroke="none" stroke-width="1" fill="none" fill-rule="evenodd">
        <g id="Group" transform="translate(2, 1.5)" stroke="#000000">
            <path d="M45.4888889,0.125743163 C45.4888889,-1.57877527 45.4888889,14.045977 45.4888889,47" id="Path-16"></path>
            <path d="M23,-22.4508022 C23,-24.1190543 23,-8.82674354 23,23.42613" id="Path-16" transform="translate(23, 0.4261) rotate(90) translate(-23, -0.4261)"></path>
            <path d="M0.511111111,0.102605943 C0.511111111,-1.28826894 0.511111111,11.5033317 0.511111111,38.4774078" id="Path-16"></path>
            <line x1="46" y1="46.5738704" x2="-7.36069455e-16" y2="46.5738704" id="Path-17"></line>
            <line x1="35.7777778" y1="38.0512782" x2="1.2723233e-14" y2="38.0512782" id="Path-17"></line>
            <line x1="35.7777778" y1="38.4774078" x2="35.7777778" y2="8.22220571" id="Path-17"></line>
            <line x1="10.7333333" y1="8.22220571" x2="36.2888889" y2="8.22220571" id="Path-17"></line>
            <line x1="11.2444444" y1="7.7960761" x2="11.2444444" y2="29.1025565" id="Path-17"></line>
            <line x1="26.5777778" y1="28.6764269" x2="11.2444444" y2="28.6764269" id="Path-17"></line>
            <rect id="Rectangle" fill="#000000" x="17.3666667" y="13.4096314" width="9.22222222" height="15.1929251"></rect>
        </g>
    </g>
</svg>